<svg id="圖層_1" data-name="圖層 1" xmlns="http://www.w3.org/2000/svg" viewBox="0 0 300 300"><defs><style>.cls-1{fill:#40220f;}</style></defs><title>超人</title><path class="cls-1" d="M195.26,87.09a4.8,4.8,0,0,1-3-1,14.12,14.12,0,0,0-2.7-1.65l-.47-.24a4.78,4.78,0,0,1,4.55-8.4,24.24,24.24,0,0,1,4.6,2.84,4.78,4.78,0,0,1-3,8.5Z"/><path class="cls-1" d="M153.35,234.47a83.81,83.81,0,0,1-46-13.66c-16.26,12.05-35.35,1.92-43.58-5.6a4.77,4.77,0,0,1,1.65-8c7.31-2.55,12.12-6,13.91-10a8.33,8.33,0,0,0,.52-5.65A84.49,84.49,0,0,1,179.7,69.73a4.77,4.77,0,1,1-3,9.07,74.92,74.92,0,0,0-88.3,108.56A4.71,4.71,0,0,1,89,188.9a17.89,17.89,0,0,1-1,12.22c-2.06,4.58-5.9,8.44-11.46,11.54,6.71,3.85,17.57,7.5,27-1.08a4.76,4.76,0,0,1,6.27-.65A74.89,74.89,0,0,0,228.26,150c0-16.17-1.84-35.11-23.8-55.12a4.77,4.77,0,1,1,6.43-7.06c23.66,21.55,26.92,42.62,26.92,62.18A84.56,84.56,0,0,1,153.35,234.47Z"/><circle class="cls-1" cx="110.68" cy="154.84" r="11.91"/><circle class="cls-1" cx="150" cy="154.84" r="11.91"/><circle class="cls-1" cx="189.32" cy="154.84" r="11.91"/></svg>