<svg id="圖層_1" data-name="圖層 1" xmlns="http://www.w3.org/2000/svg" viewBox="0 0 300 300"><defs><style>.cls-1{fill:#40220f;}.cls-2{fill:#7c4e22;}</style></defs><title>超人</title><path class="cls-1" d="M204.4,242.74H95.6a18.08,18.08,0,0,1-18-18.06V105.24a18.08,18.08,0,0,1,18-18.06H204.4a18.08,18.08,0,0,1,18,18.06v5.36a4.78,4.78,0,1,1-9.55,0v-5.36a8.51,8.51,0,0,0-8.5-8.51H95.6a8.51,8.51,0,0,0-8.5,8.51V224.68a8.51,8.51,0,0,0,8.5,8.51H204.4a8.51,8.51,0,0,0,8.5-8.51V142a4.78,4.78,0,0,1,9.55,0v82.67A18.08,18.08,0,0,1,204.4,242.74Z"/><path class="cls-1" d="M217.68,133.09a4.78,4.78,0,0,1-4.78-4.78v-3.87a4.78,4.78,0,1,1,9.55,0v3.87A4.77,4.77,0,0,1,217.68,133.09Z"/><path class="cls-2" d="M128.12,62h43.76a4,4,0,0,1,4,4V92a0,0,0,0,1,0,0H124.12a0,0,0,0,1,0,0V66A4,4,0,0,1,128.12,62Z"/><path class="cls-1" d="M175.88,96.73H124.12A4.77,4.77,0,0,1,119.34,92V74.77a17.54,17.54,0,0,1,17.51-17.51h26.3a17.53,17.53,0,0,1,17.5,17.51V92A4.76,4.76,0,0,1,175.88,96.73Zm-47-9.55H171.1V74.77a8,8,0,0,0-7.95-8h-26.3a8,8,0,0,0-8,8Z"/><path class="cls-1" d="M191.68,137.64H108.32a4.78,4.78,0,1,1,0-9.55h83.36a4.78,4.78,0,1,1,0,9.55Z"/><path class="cls-1" d="M191.68,169.74H108.32a4.78,4.78,0,1,1,0-9.55h83.36a4.78,4.78,0,1,1,0,9.55Z"/><path class="cls-1" d="M191.68,201.84H108.32a4.78,4.78,0,1,1,0-9.55h83.36a4.78,4.78,0,1,1,0,9.55Z"/></svg>