<svg xmlns="http://www.w3.org/2000/svg" width="175.692" height="60" viewBox="0 0 175.692 60">
  <g id="Group_9" data-name="Group 9" transform="translate(-39.625 -26)">
    <path id="Path_223" data-name="Path 223" d="M17.051-.879a12.32,12.32,0,0,1-5.8,1.23A9.355,9.355,0,0,1,4.072-2.534a10.648,10.648,0,0,1-2.7-7.573,11.161,11.161,0,0,1,3.032-8.145,10.292,10.292,0,0,1,7.69-3.105,12.33,12.33,0,0,1,4.951.864v2.622a10.041,10.041,0,0,0-4.98-1.26A7.642,7.642,0,0,0,6.2-16.714a9.106,9.106,0,0,0-2.249,6.46,8.664,8.664,0,0,0,2.1,6.116A7.153,7.153,0,0,0,11.572-1.86a10.346,10.346,0,0,0,5.479-1.406ZM37.119,0H34.658V-9.58H23.789V0H21.328V-21.006h2.461v9.214H34.658v-9.214h2.461ZM57.993-8.5q0,8.848-7.983,8.848-7.646,0-7.646-8.511V-21.006h2.461V-8.32q0,6.46,5.449,6.46,5.259,0,5.259-6.24V-21.006h2.461ZM63.237,0V-21.006h5.977a6.532,6.532,0,0,1,4.321,1.333,4.308,4.308,0,0,1,1.6,3.472,5.108,5.108,0,0,1-.967,3.105A5.213,5.213,0,0,1,71.5-11.221v.059a5.344,5.344,0,0,1,3.4,1.6,4.934,4.934,0,0,1,1.274,3.523A5.492,5.492,0,0,1,74.238-1.67,7.2,7.2,0,0,1,69.36,0ZM65.7-18.779V-12h2.52a4.784,4.784,0,0,0,3.179-.974,3.392,3.392,0,0,0,1.157-2.747q0-3.062-4.028-3.062Zm0,8.994v7.559h3.34A5,5,0,0,0,72.4-3.252a3.512,3.512,0,0,0,1.194-2.812q0-3.721-5.068-3.721ZM80.435,0V-21.006h5.977a6.532,6.532,0,0,1,4.321,1.333,4.308,4.308,0,0,1,1.6,3.472,5.108,5.108,0,0,1-.967,3.105A5.213,5.213,0,0,1,88.7-11.221v.059a5.344,5.344,0,0,1,3.4,1.6,4.934,4.934,0,0,1,1.274,3.523A5.492,5.492,0,0,1,91.436-1.67,7.2,7.2,0,0,1,86.558,0ZM82.9-18.779V-12h2.52a4.784,4.784,0,0,0,3.179-.974,3.392,3.392,0,0,0,1.157-2.747q0-3.062-4.028-3.062Zm0,8.994v7.559h3.34A5,5,0,0,0,89.6-3.252a3.512,3.512,0,0,0,1.194-2.812q0-3.721-5.068-3.721Zm27.422-11.221L103.389-7.764V0h-2.461V-7.705l-6.753-13.3h2.8l4.7,9.492q.088.176.513,1.289h.044a7.706,7.706,0,0,1,.557-1.289l4.922-9.492Z" transform="translate(105 81)" fill="#fff"/>
    <g id="Group_8" data-name="Group 8" transform="translate(-1150.375 -964.857)">
      <g id="Path_200" data-name="Path 200" transform="translate(3701.287 -72.533)" fill="none" stroke-miterlimit="10">
        <path d="M-2475.038,1077.453a9.062,9.062,0,0,0-9.062-9.063h-17.812a4.375,4.375,0,0,0-4.375,4.375v41.25a4.375,4.375,0,0,0,4.375,4.375h30.313a9.063,9.063,0,0,0,9.063-9.062v-9.375a9.063,9.063,0,0,0-9.062-9.063,3.438,3.438,0,0,1-3.438-3.437Z" stroke="none"/>
        <path d="M -2501.912109375 1068.389892578125 C -2504.328125 1068.389892578125 -2506.287109375 1070.348876953125 -2506.287109375 1072.76513671875 L -2506.287109375 1114.015014648438 C -2506.287109375 1116.43115234375 -2504.328125 1118.390014648438 -2501.912109375 1118.390014648438 L -2471.599609375 1118.390014648438 C -2466.5947265625 1118.390014648438 -2462.537109375 1114.332397460938 -2462.537109375 1109.327514648438 L -2462.537109375 1099.952514648438 C -2462.537109375 1094.947509765625 -2466.5947265625 1090.889892578125 -2471.599609375 1090.889892578125 C -2473.498046875 1090.889892578125 -2475.03759765625 1089.350952148438 -2475.03759765625 1087.452392578125 L -2475.03759765625 1077.452514648438 C -2475.03759765625 1072.447387695313 -2479.0947265625 1068.389892578125 -2484.10009765625 1068.389892578125 L -2501.912109375 1068.389892578125 M -2501.912109375 1063.389892578125 L -2484.10009765625 1063.389892578125 C -2482.203857421875 1063.389892578125 -2480.361572265625 1063.762451171875 -2478.624755859375 1064.4970703125 C -2476.949462890625 1065.20556640625 -2475.446044921875 1066.218872070313 -2474.15625 1067.5087890625 C -2472.866455078125 1068.798706054688 -2471.853271484375 1070.302124023438 -2471.144775390625 1071.977294921875 C -2470.41015625 1073.714111328125 -2470.03759765625 1075.556274414063 -2470.03759765625 1077.452514648438 L -2470.03759765625 1085.975341796875 C -2468.691162109375 1086.1240234375 -2467.380126953125 1086.465942382813 -2466.124267578125 1086.9970703125 C -2464.44921875 1087.705688476563 -2462.94580078125 1088.718872070313 -2461.656005859375 1090.0087890625 C -2460.3662109375 1091.298706054688 -2459.352783203125 1092.802001953125 -2458.644287109375 1094.477172851563 C -2457.90966796875 1096.214111328125 -2457.537109375 1098.056274414063 -2457.537109375 1099.952514648438 L -2457.537109375 1109.327514648438 C -2457.537109375 1111.223754882813 -2457.90966796875 1113.065795898438 -2458.644287109375 1114.802856445313 C -2459.352783203125 1116.477905273438 -2460.3662109375 1117.981323242188 -2461.656005859375 1119.271118164063 C -2462.94580078125 1120.56103515625 -2464.44921875 1121.57421875 -2466.124267578125 1122.282836914063 C -2467.861328125 1123.017456054688 -2469.703369140625 1123.390014648438 -2471.599609375 1123.390014648438 L -2501.912109375 1123.390014648438 C -2507.08154296875 1123.390014648438 -2511.287109375 1119.184448242188 -2511.287109375 1114.015014648438 L -2511.287109375 1072.76513671875 C -2511.287109375 1067.595581054688 -2507.08154296875 1063.389892578125 -2501.912109375 1063.389892578125 Z" stroke="none" fill="#fff"/>
      </g>
      <g id="Group_6" data-name="Group 6" transform="translate(1200.438 1025.294)">
        <g id="Group_3" data-name="Group 3" transform="translate(0 0)">
          <path id="Path_202" data-name="Path 202" d="M-2469.4,1329.889a1.246,1.246,0,0,1-.723-.23l-8.143-5.764a1.233,1.233,0,0,1-.521-1.005,1.231,1.231,0,0,1,.521-1l8.143-5.765a1.252,1.252,0,0,1,1.738.287,1.228,1.228,0,0,1-.29,1.723l-6.723,4.759,6.723,4.76a1.227,1.227,0,0,1,.29,1.723A1.248,1.248,0,0,1-2469.4,1329.889Z" transform="translate(2478.787 -1315.89)" fill="#fff"/>
        </g>
        <g id="Group_4" data-name="Group 4" transform="translate(21.81 0)">
          <path id="Path_203" data-name="Path 203" d="M-2344.541,1329.89a1.249,1.249,0,0,1-1.015-.517,1.228,1.228,0,0,1,.29-1.723l6.723-4.759-6.723-4.759a1.228,1.228,0,0,1-.29-1.723,1.254,1.254,0,0,1,1.739-.287l8.143,5.765a1.233,1.233,0,0,1,.522,1.005,1.233,1.233,0,0,1-.522,1.005l-8.143,5.765A1.249,1.249,0,0,1-2344.541,1329.89Z" transform="translate(2345.788 -1315.89)" fill="#fff"/>
        </g>
        <g id="Group_5" data-name="Group 5" transform="translate(12.068 0)">
          <path id="Path_204" data-name="Path 204" d="M-2404.042,1329.889a1.256,1.256,0,0,1-.557-.131,1.231,1.231,0,0,1-.557-1.657l5.816-11.529a1.251,1.251,0,0,1,1.672-.552,1.229,1.229,0,0,1,.557,1.657l-5.816,11.529A1.248,1.248,0,0,1-2404.042,1329.889Z" transform="translate(2405.288 -1315.889)" fill="#fff"/>
        </g>
      </g>
    </g>
  </g>
</svg>
