<svg id="圖層_1" data-name="圖層 1" xmlns="http://www.w3.org/2000/svg" viewBox="0 0 300 300"><defs><style>.cls-1{fill:#40220f;}</style></defs><title>超人</title><path class="cls-1" d="M150,215.77,231.9,73.92H68.1L150,215.77ZM245.33,71.33,154.47,228.69,150,236.44l-4.47-7.75L54.67,71.33l-4.48-7.77H249.81l-4.48,7.77Z"/><polygon class="cls-1" points="94.83 82.69 94.83 100.53 115.22 111.39 116.36 162.75 130.42 187.44 130.42 119.93 148.21 131.37 148.21 112.75 94.83 82.69 94.83 82.69"/><polygon class="cls-1" points="146.61 112.75 147.95 219.94 162.7 212.92 162.7 144.17 200.13 122.44 199.35 104.8 162.51 126.72 162.31 121.09 199.16 100.34 199.35 82.69 146.61 112.75 146.61 112.75"/></svg>