<svg id="圖層_1" data-name="圖層 1" xmlns="http://www.w3.org/2000/svg" viewBox="0 0 300 300"><defs><style>.cls-1{fill:#7c4e22;}.cls-2{fill:#40220f;}</style></defs><title>超人</title><polyline class="cls-1" points="194.82 111.58 194.82 79.26 214.58 79.26 214.58 126.35"/><path class="cls-2" d="M214.58,131.13a4.77,4.77,0,0,1-4.77-4.78V84H199.6v27.54a4.78,4.78,0,1,1-9.55,0V79.26a4.76,4.76,0,0,1,4.77-4.77h19.76a4.77,4.77,0,0,1,4.78,4.77v47.09A4.78,4.78,0,0,1,214.58,131.13Z"/><path class="cls-2" d="M240.23,154.79a4.75,4.75,0,0,1-3.08-1.13L149.43,79.42,62.87,153.64a4.78,4.78,0,0,1-6.22-7.25L146.3,69.52a4.8,4.8,0,0,1,6.2,0l90.82,76.87a4.78,4.78,0,0,1-3.09,8.42Z"/><path class="cls-2" d="M214.58,163.09a4.77,4.77,0,0,1-4.77-4.77v-3.69a4.78,4.78,0,1,1,9.55,0v3.69A4.78,4.78,0,0,1,214.58,163.09Z"/><path class="cls-2" d="M214.58,231.63H167.94a4.78,4.78,0,0,1-4.78-4.78V191.48a9.25,9.25,0,0,0-9.24-9.24h-5.75a9.25,9.25,0,0,0-9.24,9.24v35.37a4.78,4.78,0,0,1-4.78,4.78H85.42a4.78,4.78,0,0,1-4.78-4.78V154.63a4.78,4.78,0,1,1,9.55,0v67.45h39.19v-30.6a18.81,18.81,0,0,1,18.79-18.79h5.75a18.81,18.81,0,0,1,18.79,18.79v30.6h37.1v-47a4.78,4.78,0,1,1,9.55,0v51.75A4.78,4.78,0,0,1,214.58,231.63Z"/></svg>