<svg xmlns="http://www.w3.org/2000/svg" width="176.375" height="63" viewBox="0 0 176.375 63">
  <g id="Group_9" data-name="Group 9" transform="translate(-39.625 -26)">
    <text id="CHUBBY" transform="translate(105 81)" fill="#fff" font-size="30" font-family="SegoeUI, Segoe UI"><tspan x="0" y="0">CHUBBY</tspan></text>
    <g id="Group_8" data-name="Group 8" transform="translate(-1150.375 -964.857)">
      <g id="Path_200" data-name="Path 200" transform="translate(3701.287 -72.533)" fill="none" stroke-miterlimit="10">
        <path d="M-2475.038,1077.453a9.062,9.062,0,0,0-9.062-9.063h-17.812a4.375,4.375,0,0,0-4.375,4.375v41.25a4.375,4.375,0,0,0,4.375,4.375h30.313a9.063,9.063,0,0,0,9.063-9.062v-9.375a9.063,9.063,0,0,0-9.062-9.063,3.438,3.438,0,0,1-3.438-3.437Z" stroke="none"/>
        <path d="M -2501.912109375 1068.389892578125 C -2504.328125 1068.389892578125 -2506.287109375 1070.348876953125 -2506.287109375 1072.76513671875 L -2506.287109375 1114.015014648438 C -2506.287109375 1116.43115234375 -2504.328125 1118.390014648438 -2501.912109375 1118.390014648438 L -2471.599609375 1118.390014648438 C -2466.5947265625 1118.390014648438 -2462.537109375 1114.332397460938 -2462.537109375 1109.327514648438 L -2462.537109375 1099.952514648438 C -2462.537109375 1094.947509765625 -2466.5947265625 1090.889892578125 -2471.599609375 1090.889892578125 C -2473.498046875 1090.889892578125 -2475.03759765625 1089.350952148438 -2475.03759765625 1087.452392578125 L -2475.03759765625 1077.452514648438 C -2475.03759765625 1072.447387695313 -2479.0947265625 1068.389892578125 -2484.10009765625 1068.389892578125 L -2501.912109375 1068.389892578125 M -2501.912109375 1063.389892578125 L -2484.10009765625 1063.389892578125 C -2482.203857421875 1063.389892578125 -2480.361572265625 1063.762451171875 -2478.624755859375 1064.4970703125 C -2476.949462890625 1065.20556640625 -2475.446044921875 1066.218872070313 -2474.15625 1067.5087890625 C -2472.866455078125 1068.798706054688 -2471.853271484375 1070.302124023438 -2471.144775390625 1071.977294921875 C -2470.41015625 1073.714111328125 -2470.03759765625 1075.556274414063 -2470.03759765625 1077.452514648438 L -2470.03759765625 1085.975341796875 C -2468.691162109375 1086.1240234375 -2467.380126953125 1086.465942382813 -2466.124267578125 1086.9970703125 C -2464.44921875 1087.705688476563 -2462.94580078125 1088.718872070313 -2461.656005859375 1090.0087890625 C -2460.3662109375 1091.298706054688 -2459.352783203125 1092.802001953125 -2458.644287109375 1094.477172851563 C -2457.90966796875 1096.214111328125 -2457.537109375 1098.056274414063 -2457.537109375 1099.952514648438 L -2457.537109375 1109.327514648438 C -2457.537109375 1111.223754882813 -2457.90966796875 1113.065795898438 -2458.644287109375 1114.802856445313 C -2459.352783203125 1116.477905273438 -2460.3662109375 1117.981323242188 -2461.656005859375 1119.271118164063 C -2462.94580078125 1120.56103515625 -2464.44921875 1121.57421875 -2466.124267578125 1122.282836914063 C -2467.861328125 1123.017456054688 -2469.703369140625 1123.390014648438 -2471.599609375 1123.390014648438 L -2501.912109375 1123.390014648438 C -2507.08154296875 1123.390014648438 -2511.287109375 1119.184448242188 -2511.287109375 1114.015014648438 L -2511.287109375 1072.76513671875 C -2511.287109375 1067.595581054688 -2507.08154296875 1063.389892578125 -2501.912109375 1063.389892578125 Z" stroke="none" fill="#fff"/>
      </g>
      <g id="Group_6" data-name="Group 6" transform="translate(1200.438 1025.294)">
        <g id="Group_3" data-name="Group 3" transform="translate(0 0)">
          <path id="Path_202" data-name="Path 202" d="M-2469.4,1329.889a1.246,1.246,0,0,1-.723-.23l-8.143-5.764a1.233,1.233,0,0,1-.521-1.005,1.231,1.231,0,0,1,.521-1l8.143-5.765a1.252,1.252,0,0,1,1.738.287,1.228,1.228,0,0,1-.29,1.723l-6.723,4.759,6.723,4.76a1.227,1.227,0,0,1,.29,1.723A1.248,1.248,0,0,1-2469.4,1329.889Z" transform="translate(2478.787 -1315.89)" fill="#fff"/>
        </g>
        <g id="Group_4" data-name="Group 4" transform="translate(21.81 0)">
          <path id="Path_203" data-name="Path 203" d="M-2344.541,1329.89a1.249,1.249,0,0,1-1.015-.517,1.228,1.228,0,0,1,.29-1.723l6.723-4.759-6.723-4.759a1.228,1.228,0,0,1-.29-1.723,1.254,1.254,0,0,1,1.739-.287l8.143,5.765a1.233,1.233,0,0,1,.522,1.005,1.233,1.233,0,0,1-.522,1.005l-8.143,5.765A1.249,1.249,0,0,1-2344.541,1329.89Z" transform="translate(2345.788 -1315.89)" fill="#fff"/>
        </g>
        <g id="Group_5" data-name="Group 5" transform="translate(12.068 0)">
          <path id="Path_204" data-name="Path 204" d="M-2404.042,1329.889a1.256,1.256,0,0,1-.557-.131,1.231,1.231,0,0,1-.557-1.657l5.816-11.529a1.251,1.251,0,0,1,1.672-.552,1.229,1.229,0,0,1,.557,1.657l-5.816,11.529A1.248,1.248,0,0,1-2404.042,1329.889Z" transform="translate(2405.288 -1315.889)" fill="#fff"/>
        </g>
      </g>
    </g>
  </g>
</svg>
